<svg xmlns="http://www.w3.org/2000/svg" width="65.958" height="72" viewBox="0 0 65.958 72"><defs><style>.a{fill:#2178ff;}</style></defs><path class="a" d="M32.969,72a1.588,1.588,0,0,1-.878-.287L23.637,66.1l-.366-.243-9.937-6.593a1.8,1.8,0,0,1,.851-3.28,1.617,1.617,0,0,1,.9.294q8.067,5.356,16.142,10.71V46.925a1.736,1.736,0,0,1,3.47,0V70.167a1.571,1.571,0,0,1-.6,1.285A1.534,1.534,0,0,1,32.969,72ZM43.03,65.9a1.827,1.827,0,0,1-1.192-.417,1.589,1.589,0,0,1-.542-1.251V43.1a1.551,1.551,0,0,1,.721-1.353.338.338,0,0,0,.052-.058.28.28,0,0,1,.086-.082l3.889-2.579.04-.026q3.6-2.385,7.193-4.772a1.59,1.59,0,0,1,.883-.289,1.506,1.506,0,0,1,1.053.457,1.551,1.551,0,0,1,.672,1.327v21.9a1.635,1.635,0,0,1-1.735,1.67,1.833,1.833,0,0,1-1.2-.418,1.589,1.589,0,0,1-.543-1.252V38.946c-.734.493-1.452.968-2.259,1.5v8.6a1.734,1.734,0,0,1-3.466,0v-6.3c-.377.247-.756.5-1.123.74l-.016.011-.785.518V64.236A1.633,1.633,0,0,1,43.03,65.9ZM5.789,53.237a1.838,1.838,0,0,1-1.2-.418,1.588,1.588,0,0,1-.544-1.253V31.455a1.546,1.546,0,0,1,.681-1.327,1.5,1.5,0,0,1,1.048-.454,1.6,1.6,0,0,1,.886.288l.748.5c3.4,2.254,6.908,4.585,10.376,6.882a1.8,1.8,0,0,1-.855,3.278,1.616,1.616,0,0,1-.9-.293c-2.013-1.332-4.053-2.688-6.027-4L10,36.319,7.528,34.68v5.91l1.042.692q3.125,2.076,6.256,4.152a1.8,1.8,0,0,1-.853,3.277,1.615,1.615,0,0,1-.9-.293c-1.866-1.232-3.732-2.47-5.546-3.681v6.83A1.637,1.637,0,0,1,5.789,53.237Zm58.435-.063a1.83,1.83,0,0,1-1.194-.418,1.59,1.59,0,0,1-.543-1.253V21.375L50.871,14.438l-1.319-.788-.147-.088q-8.222-4.91-16.442-9.818L16.849,13.367l-.038.022-14.232,8.5a1.7,1.7,0,0,1-.874.258A1.8,1.8,0,0,1,.068,20.783,1.6,1.6,0,0,1,.833,18.9L15.01,10.435l.273-.163L15.4,10.2,32.091.235a1.751,1.751,0,0,1,1.753,0q6.047,3.613,12.1,7.224l10.472,6.258.077.046,5.275,3.152c.335.2.654.379.962.553,1.945,1.1,3.231,1.824,3.231,4.418V51.5A1.635,1.635,0,0,1,64.224,53.174ZM32.5,41.441h0l-.909-1.354-.018-.024-.116-.176a1.644,1.644,0,0,1-.23-.832v-6.13l-.8.529-.009.006q-1.184.786-2.375,1.575a1.635,1.635,0,0,1-.905.294,1.54,1.54,0,0,1-1.167-.571l-.2-.283-.025-.032-.447-.643,1.364-.9.022-.014a.391.391,0,0,1,.071-.058l.018-.012q.745-.5,1.5-.992L28.3,31.8q.675-.447,1.35-.9c.215-.146.465-.313.737-.5L30.4,30.4l.007,0,.82-.549V27.082q-1.2.8-2.4,1.593L26.96,29.911a1.629,1.629,0,0,1-.9.291,1.554,1.554,0,0,1-1.168-.569L24.7,29.35l-.022-.034-.454-.641,1.361-.9.025-.014a.378.378,0,0,1,.068-.055l.024-.017c.823-.549,1.734-1.154,2.866-1.9v-.007c.632-.416,1.486-.987,2.659-1.773V17.4c-2.943,1.948-6.208,4.113-10.271,6.815L17.363,26.6l-.029.02-2.249,1.492a1.63,1.63,0,0,1-.9.292,1.547,1.547,0,0,1-1.168-.568l-.195-.283-.018-.035-.942-1.406,1.364-.9.02-.014a.508.508,0,0,1,.079-.056l.018-.011,2.479-1.646.025-.016q1.593-1.057,3.183-2.115l9.418-6.249,3.645-2.418.059-.029.052-.034,1.239-.829.927,1.39.105.162a1.59,1.59,0,0,1,.224.832v7.512l.847-.564c.5-.332.946-.629,1.3-.87a1.648,1.648,0,0,1,.906-.292,1.544,1.544,0,0,1,1.168.57l.189.284.027.034.448.64-1.36.9L38.2,22.4a.514.514,0,0,1-.074.058l-.018.012c-.317.211-.906.606-1.586,1.063L34.7,24.76v2.768l.88-.588c.9-.6,1.748-1.168,2.354-1.567a1.614,1.614,0,0,1,.9-.294,1.557,1.557,0,0,1,1.17.567l.189.286.021.034.452.641-1.358.906-.021.015c-.018.015-.037.028-.056.04l-.037.026c-.381.253-1.148.769-1.961,1.315-.856.576-1.827,1.228-2.535,1.7v5.223c2.64-1.748,5.32-3.527,7.911-5.248l2.37-1.574c1.809-1.2,3.655-2.424,5.439-3.6l.014-.01.4-.263a1.461,1.461,0,0,1,.878-.3,1.587,1.587,0,0,1,.889.291,1.9,1.9,0,0,1,.511.49l1.007,1.49L52.6,28.107l-5.7,3.779L33.844,40.551l-1.342.89Z"/></svg>